<mxfile host="app.diagrams.net" modified="2023-05-18T18:58:55.868Z" agent="Mozilla/5.0 (Macintosh; Intel Mac OS X 10_15_7) AppleWebKit/605.1.15 (KHTML, like Gecko) Version/16.3 Safari/605.1.15" etag="YLQqfXOkEBPdmTLc3v8b" version="21.3.2" type="github">
  <diagram name="Page-1" id="ZY9jnOSpo5ewfdl5DfAR">
    <mxGraphModel dx="954" dy="622" grid="1" gridSize="10" guides="1" tooltips="1" connect="1" arrows="1" fold="1" page="1" pageScale="1" pageWidth="850" pageHeight="1100" math="0" shadow="0">
      <root>
        <mxCell id="0" />
        <mxCell id="1" parent="0" />
        <mxCell id="DnsGu_fKIDDIQ5bsf2qm-1" value="" style="outlineConnect=0;dashed=0;verticalLabelPosition=bottom;verticalAlign=top;align=center;html=1;shape=mxgraph.aws3.traditional_server;fillColor=#7D7C7C;gradientColor=none;" vertex="1" parent="1">
          <mxGeometry x="190" y="140" width="46.5" height="63" as="geometry" />
        </mxCell>
        <mxCell id="DnsGu_fKIDDIQ5bsf2qm-2" value="" style="outlineConnect=0;dashed=0;verticalLabelPosition=bottom;verticalAlign=top;align=center;html=1;shape=mxgraph.aws3.traditional_server;fillColor=#7D7C7C;gradientColor=none;" vertex="1" parent="1">
          <mxGeometry x="340" y="140" width="46.5" height="63" as="geometry" />
        </mxCell>
        <mxCell id="DnsGu_fKIDDIQ5bsf2qm-3" value="SIEM" style="text;strokeColor=none;align=center;fillColor=none;html=1;verticalAlign=middle;whiteSpace=wrap;rounded=0;" vertex="1" parent="1">
          <mxGeometry x="183.24" y="80" width="60" height="30" as="geometry" />
        </mxCell>
        <mxCell id="DnsGu_fKIDDIQ5bsf2qm-4" value="Ansible" style="text;strokeColor=none;align=center;fillColor=none;html=1;verticalAlign=middle;whiteSpace=wrap;rounded=0;" vertex="1" parent="1">
          <mxGeometry x="329.99" y="80" width="60" height="30" as="geometry" />
        </mxCell>
        <mxCell id="DnsGu_fKIDDIQ5bsf2qm-5" value="&lt;b&gt;Name&lt;/b&gt;: siem-01&lt;br&gt;&lt;b&gt;IP&lt;/b&gt;: 192.168.1.170" style="text;strokeColor=none;align=center;fillColor=none;html=1;verticalAlign=middle;whiteSpace=wrap;rounded=0;" vertex="1" parent="1">
          <mxGeometry x="139.87" y="90" width="146.75" height="50" as="geometry" />
        </mxCell>
        <mxCell id="DnsGu_fKIDDIQ5bsf2qm-6" value="&lt;b&gt;Name&lt;/b&gt;: ansible-01&lt;br&gt;&lt;b&gt;IP&lt;/b&gt;: 192.168.1.107" style="text;strokeColor=none;align=center;fillColor=none;html=1;verticalAlign=middle;whiteSpace=wrap;rounded=0;" vertex="1" parent="1">
          <mxGeometry x="286.62" y="90" width="146.75" height="50" as="geometry" />
        </mxCell>
        <mxCell id="DnsGu_fKIDDIQ5bsf2qm-7" value="" style="edgeStyle=none;orthogonalLoop=1;jettySize=auto;html=1;rounded=0;" edge="1" parent="1">
          <mxGeometry width="80" relative="1" as="geometry">
            <mxPoint x="212.75" y="200" as="sourcePoint" />
            <mxPoint x="260" y="260" as="targetPoint" />
            <Array as="points">
              <mxPoint x="213" y="260" />
            </Array>
          </mxGeometry>
        </mxCell>
        <mxCell id="DnsGu_fKIDDIQ5bsf2qm-8" value="" style="edgeStyle=none;orthogonalLoop=1;jettySize=auto;html=1;rounded=0;exitX=0.5;exitY=1;exitDx=0;exitDy=0;exitPerimeter=0;" edge="1" parent="1" source="DnsGu_fKIDDIQ5bsf2qm-2">
          <mxGeometry width="80" relative="1" as="geometry">
            <mxPoint x="222.75" y="210" as="sourcePoint" />
            <mxPoint x="320" y="260" as="targetPoint" />
            <Array as="points">
              <mxPoint x="363" y="260" />
            </Array>
          </mxGeometry>
        </mxCell>
        <mxCell id="DnsGu_fKIDDIQ5bsf2qm-9" value="" style="shape=image;imageAspect=0;aspect=fixed;verticalLabelPosition=bottom;verticalAlign=top;image=data:image/png,iVBORw0KGgoAAAANSUhEUgAAAgAAAAIACAYAAAD0eNT6AAAABHNCSVQICAgIfAhkiAAAAAlwSFlzAAAyZQAAMmUBssWSKgAAABl0RVh0U29mdHdhcmUAd3d3Lmlua3NjYXBlLm9yZ5vuPBoAACAASURBVHic7N13fBR1+gfwz24qIZUkkAAhhBo60nuHhAChSrkDsWD3VCx4cmI7Tz09scEhqNiVToL0UEOxASIIJGCooSS0hARSd+f3x4g/PQnJzM7Md3fm8369ntedkJl5MstmnszOfMYG86sPIP7X/40FEAOgJoAIAOEAgn79ulAANuPbIyIiA0kA8n79/wUALgI4/2udAnD818oAcML49oxjtgNeXQDdAXQD0A5AKwAhQjsiIiJPlQdgP4A9AHb+WtlCO9KQpw8AwQD6A0gEkAD5N3wiIiK9HAewDsBaABshn0XwSJ44AIQAGA7gVgCDAPiKbYeIiCzKAWAzgM8ApALIF9uOMp4yANgA9AMwBcBIAH5i2yEiIvqDYgDLAHwAYAvkaw3cmrsPAEEA7gLwEICGgnshIiKqil8AvAtgPoBCwb1UyF0HgCgAjwG4B7yIj4iIPFMegLkAZgLIFdzLn7jbABAO4G+QD/5BlXwtERGRJ7gK4EMALwPIEdzLb7xEN/ArfwBPAlgC+cI+fsZPRERm4QugM+Sz2k4AuyBfQCiUO5wBGA3gdQBxohshIiIyQBaAJwCkiGxC5AAQDfkiidECeyAiIhJlJYAHICcQGk7URwB3A1gB4BZB2yciIhKtCYA7IV8g+KPRGzf6DEAEgPcBjDB4u0RERO5sOeRfji8atUEjB4A+AL6EfOqfiIiI/ug0gAkAthmxMaM+ArgHwFfgPf1EREQVCQYwCUApgB16b0zvMwD+kJOQJui8HSIiIjP5HHL8fYleG9BzAKgB+TONXjpug4iIyKy+gfzwu/N6rFyvAaA+gPUAGuu0fiIiIivIhPy4+xNar1iPAaApgDQAMTqsm4iIyGpOARgA4LCWK9V6AGgJYAOAWhqvl4iIyMrOQR4CDmi1Qi0HgMYAtoK3+REREekhF0BvABlarEyrAaAegHQAsRqtj4iIiP4sG/LF9cdcXZEWA0A45CsVecEfERGR/jIBdANwyZWV2F1swhfAYvDgT0REZJSmkJ8k6OfKSlxNAvwMwDAX10FERETKxEK+5X652hW4MgA8/msRERGR8VoDuAzgOzULq70GoDuAzQB8VC5PRERErisH0B/yhfiKqBkAIgDsA2/3IyIicgenAbSBwkcJq7kIcA548CciInIXdQC8r3QhpdcA3A3gKaUbISIiIl01gxwZ/GNVF1DyEUBtyBGEoQqbIiIiIv1dAdAc8kcClVLyEcBs8OBPRETkroIBvFfVL67qADAKwAhV7RAREZFRhgIYXpUvrMpHAH6QT/03dKUjIiIiMsRRyB8FlNzsi6pyEeBTAMZo0RERERHpLgxAAYAdN/uiys4ARECeJII0aoqIiIj0dwVAA9wkG6CyawCeAg/+REREniYYlcT13+wMQBSALAABWnZEREREhrgK+SxA7o3+8mZnAB4DD/5ERESeqjqAqRX9ZUVnAIIAnATv+yciIvJklwHUA1D4v39R0RmAKeDBn4iIyNOFAbjrRn9xozMANgBHwPv+iYiIzOAXAE0ASL//wxudAegHHvyJiIjMohGA3v/7hzcaAO7WvxciIiIy0J8+BvjfjwBCAORAjv8lIiIicygCUAtyQiCAP58BGAke/ImIiMymGoDk3//B/w4AtxrXCxERERnoD8f4338EEAzgPABfQ9shIiIiI5RAfsZPIfDHMwADwIM/ERGRWfkB6Hv9P34/ACQa3wsREREZ6Ldj/e8/AjgOINbwVoiIiMgoWZBzAX4bAOoBOCGsHSIiIjJKXQCnr38E0E1kJ0RERGSYrsD/XwPQVWAjREREZJzuwP8PAO0ENkJERETGuQWQrwGwAbgEPv6XiIjICi4BCLdDvvKfB38iIiJrqAGgjh1AvOhOiIiIyFDxdgD1RXdBREREhqp//SMAIiIiso44DgBERETWU98OoKboLoiIiMhQkXYA4aK7ICIiIkOF2yHfDkBERETWEW4HECi6CyIiIjJUoB2An+guiIiIyFB+dgC+orsgIiIiQ/nZADghPw+AiIiIrEGyAZBEd0FERETGslf+JURERGQ2HACIiIgsiAMAERGRBXEAICIisiAOAERERBbEAYCIiMiCOAAQERFZEAcAIiIiC+IAQEREZEEcAIiIiCyIAwAREZEFcQAgIiKyIA4AREREFsQBgIiIyIK8RTdAJIq/vz8CAwPh5+eHgoICXLlyRXRLZICgoCAEBwejpKQEhYWFKC4uFt0SkRAcAMjUatasiZ49e6J58+aIj49H06ZNERsbi9DQUHh7//mf/+XLl3Hp0iVkZmbi4MGDyMzMxN69e/Hjjz/C4XAI+A5IKZvNhlatWqFdu3Zo1qwZmjVrhvj4eERERCA0NBQ2m+0PX19eXo68vDycOHECmZmZyMjIwMGDB7Ft2zbk5uYK+i6I9GcDIIlugkgrXl5e6N+/P4YMGYJ+/fqhRYsWf/qBr8bFixexceNGrF+/HitXrkROTo4G3ZJWwsLCMGTIECQkJGDgwIGoVauWy+uUJAkHDhzApk2bsGrVKmzcuJFDIJmOxGJ5ejVr1kx69dVXpezsbElvJSUl0qJFi6QBAwZINptN+Pdu5erZs6f06aefSkVFRbq/7tnZ2dKrr74qNWvWTPj3zWJpVMIbYLFUV9euXaWVK1dKTqdT9wPAjRw5ckSaPHmy5OXlJXxfWKXsdrs0fvx46cCBA0Jec6fTKa1cuVLq2rWr8H3BYrlYwhtgsRRXp06dpI0bNwo5ANzIgQMHpBEjRvCMgI5ls9mk4cOHS/v27RP9cv9mw4YNUqdOnYTvGxZLZQlvgMWqctWoUUOaO3eu5HA4RP/sv6GNGzdKcXFxwveT2apRo0bS5s2bRb+8N+RwOKS5c+dKNWrUEL6fWCyFJbwBFqtKNWHCBOn8+fOif95XqqCgQHrooYd4NkCD8vLykp544gnp6tWrol/WSp0/f14aP3688H3GYiko4Q2wWDetatWqSe+//77on++KrV27VgoLCxO+/zy1oqOjpe3bt4t+GRWbN2+eVK1aNeH7j8WqQglvgMWqsBo3bizt379f9M901Q4fPsyrxlVUt27dpNOnT4t++VTbt2+f1LhxY+H7kcWqpIQ3wGLdsDp06CDl5uaK/lnusvz8fGnQoEHC96en1J133imVlJSIftlclpOTI3Xo0EH4/mSxblLCG2Cx/lR9+/aV8vPzRf8M10xJSYk0bNgw4fvV3eu+++4TdkunHgoLC6XExETh+5XFulHxYUDklsaMGYPg4GDRbWjG19cXixYtQmJiouhW3Nbjjz+OOXPmaJLc6C6qV6+O5ORk0W0QVUj4FMJi/W95eXlJy5cvF/0LnOaKioqkfv36Cd+/7laPPfaY6JdGF8uXL2dIFMudS3gDLNYNy9fXV0pLSxP9M1xzV65ckdq3by98/7pL/fWvfzXVaf/rdu7cKQUEBAjfvyxWRcWHAZFbCw4OxpYtW3DLLbeIbkVTFy5cQM+ePZGRkSG6FaGGDBmClJSUGz6Z0ZP9/PPP6NWrFy5fviy6FaIKcQAgt1ezZk1s374djRs3Ft2Kpk6dOoXu3bvj1KlTolsRolOnTti0aROqV68uuhVNWf11Jc/BAYA8QsOGDbFjxw5NHvPqTg4cOIBevXrh0qVLolsxVPPmzbFt2zbUqFFDdCuaunDhAnr06IHMzEzRrRBVincBkEfIysrCoEGDkJeXJ7oVTbVo0QKrV6823W/BN1OnTh2sXr3adAf/a9euITk5mQd/8hgcAMhj7Nu3D6NGjUJJSYnoVjTVuXNnLFy4ED4+PqJb0V14eDjS0tIQGxsruhVNlZWVYdSoUfjmm29Et0KkiPArEVksJTVixAipvLxc9EXemvv8888lu90ufP/qVQEBAR6Z7V8Zh8MhjRs3Tvj+ZbFUlPAGWCzFdf/994v+ua+LWbNmCd+3epSPj4+0evVq0btXF48++qjw/ctiqSkvAM+DyMPs2rUL3t7e6NWrl+hWNNWpUyeUlJRg+/btolvRjM1mw/vvv49bb71VdCuae+mll/DKK6+IboNINeFTCIultt555x3RvwBqzul0SlOmTBG+b7Wq//znP6J3qS7mzZsnfN+yWC6W8AZYLNXl5eUlLV68WPSxQHPl5eXSmDFjhO9fV2vatGmid6UuUlNTJW9vb+H7l8VysYQ3wGK5VGaNDC4pKZEGDhwofP+qrYkTJ5oy4nfLli2Sv7+/8P3LYrlaDAIiUzBrZPCVK1fQt29f7NmzR3QrijDil8j9cQAg0zBrZPD58+fRs2dPjwmY6dy5MzZu3Gi6cKNjx46he/fuOHv2rOhWiDTBAYBMpWHDhti+fTuioqJEt6IpTzn4MOKXyHMwCZBMJSsrCwkJCaaLDI6Li8P69esRFhYmupUK1a1bF2vWrDHdwb+goACJiYk8+JPp8AwAuczXCwjyBQJ9gRA/oLovIElAQSlQWArkFQNXy4Byp3E99e3bF2vWrIGfn59xGzXAt99+iwEDBuDq1auiW/mD8PBwbNu2Dc2aNRPdiqZKS0uRnJyMdevWGbZNb7v8Hgr1k99TQb6AzSa/h/KL5fdUQSlQ6jCsJTIpDgCkSMMwoEsdoHE40CgMaBAG1A0GvGw3X67cCZzMBzIvAr9cBg5fBL47DZwu0K/XESNGYMmSJfDy8tJvIwKsXLkSI0eORHl5uehWAAABAQFIS0tDt27dRLeiKafTiQkTJmDRokW6baNuMNCpNtAkXH5PNQ0HYoLlIeBmHBKQnQ9k5QFZl+T307engaO8NpEU4ABANxXoCyQ2BHrWA3rEAFGB2q4/6zKw9YRc6Se1/63mvvvuw5w5c7RdqRv4/PPPcdttt0GSxL59fXx8kJqaisGDBwvtQw9Tp07FW2+9pek6/byBXvWAXrFA71h5oNbSuUJg+ykg/QSwLks+W0BUEQ4A9Cd2G9AhGhjdDBgZD1Q36CF1V0qAFYeBj38CDl3Qbr0vvvgiZsyYod0K3cS7776Lhx9+WNj2bTYb5s+fj9tvv11YD3r55z//iWeffVaz9TUMA8a1ACa0BGpU02y1N1VSDqQdBZYcAjYfN/YjOPIMHADoNz5ewNhmwIMdgdgQsb18fwaY/QOw4Zg263vnnXfwt7/9TZuVuZFp06bh9ddfF7LtN954A4899piQbetp3rx5uPfeezVZ18AGwAMdgE51NFmdaify5ffTooNAGa8doF9xACD4eQN/bSn/oIrW+BS/q/acBV7dCew45dp6vLy8sGDBAowZM0abxtyEJEm4++678eGHHxq63aeeegqvvvqqods0wooVKzB69GiXr6/oUQ94qhvQLlqjxjRypgCYswv44mf5DAFZGwcAi+tXH3ipr/jf+Cuz/RQwfZN8zYBavr6+WLlyJQYOHKhdY27A4XBg7NixWLZsmSHbmzhxIj799FPYbJVc+elhtm7disTERBQXF6teR6MawMv9gO4xGjamg+N5wDOb5Y8GyLo4AFhUnSDg+d5AUiPRnVRdSTnw5nfAnN3qP880a2RwUVEREhMTkZ6erut2hg4diuXLl5su4nf//v3o3bu36ohfb7t8Bu3RzvIZNU+x6gjw/Fb5zABZDwcACxraGPjPACDIQ2+R/zkXeHS9+gsFIyMjsWPHDtNFBl+5cgV9+vTBjz/+qMv6GfF7Y80igLcTgRaRGjdmkIIS4PE0eRgga+EAYCG+XsAzPYG72oruxHUl5cDfN8kXNalh1sjg3Nxc9OzZE4cPH9Z0vS1atEB6errpUv5cfc7C8KbAG4OAah70W39FlhwCntoAFPPaAMvgAGARtaoDnwwHWtUU3Ym25u0B/rVd3UcCrVu3xtatWxEaGqp9YwIdPXoU3bt3x7lz5zRZX926dbFjxw7Uq1dPk/W5i4KCAvTt2xe7d+9WvKy3XR6m726nQ2MC7csBJqcCue4VNEk64QBgAXGhwJejgHrBojvRx9YTwJSVwLUy5cuaNTLY1c+0rwsPD8f27dsRHx+vUWfuwZWI3wAfYH6yHI5lRifygb8uA46Z63EadAN8GJDJta4JpIw178EfkBPVvhgpZ6YrtXnzZowfPx4Oh7lujm7VqhWWL18Of39/1esICAjAihUrTHfwdzqdmDRpkuqD/yfDzXvwB+Q7gr6e4H63MJL2OACYXFyYccljInWqDXw5EghW8Yt8SkoKHnroIe2bEqx3795YtGiRqiv2fXx8sGTJEtPl+wPAY489pirfP9gPWDQG6Obmt/hpIcRPfiYBmZsXgOdFN0H6ybwoPzmsb33RnegvOkj+zWzFYeXPFNi1axe8vLzQu3dvfZoTpGnTpoiLi0NKSkqVl7HZbPjwww9NF5oEyLHQagKMgnyBhWOAtua6ZrRCz28FvvpZdBekNw4AFrDnnHwHQGfBcaRGiAoE2kcDqYcBh8ILAzdv3ozw8HB07txZn+YEadOmDfz8/LBx48Yqff0bb7yB+++/X+eujDdv3jw8/vjjipfz8QI+TLbG+wcA3vkeePd70V2QETgAWMSOU/LB0Wx3AdxITDAQHw6sPKL8Ctd169ahefPmaNGihS69idKjRw9cvXoVO3fuvOnXPf3003jmmWcM6so4K1aswOTJk+F0KpsK7Tbgv4OBQQ11aszNLDkEzNgsugsyCgcAC9l0DGgSATQx163cN9SoBhBRXfnDhCRJQmpqKrp06YKGDc31U3/gwIE4depUhUFBEydOxKxZs0wZ8TtixAiUlip/Nu4LfYDxLbXvyR2lHQUeWgM4eV+YZfA2QIvx95avmO9ikdOZM78F3vhW+XJmjQx2OBy49dZbsXz58j/8OSN+/+yJrsDULjo05Yb2nAXGLgGKGAJkKRwALCjIF1h6q+dGlyr13FbgAxXpuJGRkdi+fTuaNGmifVMCFRUVISEhAdu2bQMAdOnSBRs2bDBdxO/Ro0fRo0cPVRG/k1oDr/bXoSk3lHEBGLUYyFf/DCTyUBwALKpWdSBlnLnzAa5zSsADa4CvVaTjmjUyOD8/H3369EFZWRkjfv9HYkNg3jDAy1yfhNzQmQJg+EI+DMiqOABYWGwIkDoOiAwQ3Yn+yhzA7SuALSeUL9uuXTts3rwZwcHmmpbOnDkDSZJQp465Pg8qKChAnz59sGfPHsXLdouRPyLz9dKhMTdzqQgYsdC1R2yTZ+MAYHFtagGLRgOBKlL0PE1ROTBuKbBbxUPfzBoZbDalpaUYNmwY1q9fr3jZNrXkoB/LvBeWqHsvkHkwCdDifsoB7vhaeXCOJ6rmDXycLN8hoJRZI4PN5HrEr5qDf/1Q4JMR1jj4lzuBKSt48CfeBkgATl2REwOHNpHvezazaj5AQgNg1S9yQqISGRkZyM3NxdChQ/VpjlwydepUzJ8/X/FytQLli2KjA3Voys04JeChtcC6LNGdkDvgAEAAgF8uAxeLgAFxojvRX5Af0CtWjgxW+uzzXbt2wW63my4y2NO98MIL+Pe//614uSA/YMFodWeFPNEL6Yz4pf/HAYB+81OO/JxzK2QERAQAXevIkcFlCiODt2zZYsrIYE81b948PPHEE4qX8/cGPh8J3GKuGzwq9NZ3jPilP+IAQH+w4xQQ5m+NH4rRQUDzSDkyWGn6mVkjgz2N2ohfLxvw3yHWeEgWAHy+H3hhq+guyN3wLgD6Ey8bMCcJGNJYdCfGWJoBPLJW+RvB19cXK1euxMCBA3Xpi25uy5YtGDx4MIqLlSXY2AC8PhCYYJGI3/VZwN0r5Yv/iH6PAwDdkI8X8OlwoFc90Z0YY/Yu4OXtypcLDg7G5s2b0a5dO+2bogrt378fvXr1Ql5enuJl/9ETeKCDDk25oW+ygb8uB0oY8Us3wNsA6YbKHMA9K4Gfc0V3YowHOwD3tle+3JUrV5CYmIjDh1XEDJIqR48exaBBg1Qd/O9oa52Df8YF4K6vefCninEAoAoVlAJ/WQ4ctUhS2IyewDgVH+mfP38eSUlJOHfunPZN0R+4sq9HxgMv9tG8Jbd0Ih+YsIz5/nRzHADopi4WARNTgNyrojvRnw3Aa/2BfvWVL5uVlYWEhARVv5VS1RQUFCAxMVFVvn/PesCbg8yfcwHI79lJy63xniXXcACgSp3Il88EXCkR3Yn+vO3A+0OBTrWVL7tv3z6MHDlS8UVpVLnS0lKMGTNGVb5/2yhgfrJ8XYvZFZYCf13GfH+qGg4AVCWHLgB3WuTzRH9v+QLI5ioel7xlyxZGBmvM6XRi4sSJqiJ+m4TLD/cJ8NGhMTdz/bqd/Ra5bodcxxwAqrLsK0CGRSKD/byBQQ2A1b8oP/ORmZnJyGANqY34jQ4EFt8K1KyuQ1NuxikBD64B0o6K7oQ8CQcAUiTrMnDBIpHBgb7y97niMHCtTNmyjAzWhtqI3zB/+eBfP1SHptzQ81uBBQdEd0GehgMAKbYvRz4D0LWu6E70F+Yvf5+pmeoig2vUqMHIYJXmzp2rKuK32q8Rv61q6tCUG5r5LTD7B9FdkCfiAECq7MwGQv2BdhaIDI4KBG6Jls8EOBTGZq1fv56RwSqkpqZi8uTJkCRlO9zbDnyYDHSP0akxN/PZPuCf6aK7IE/FJEBSzf5rZPBQi0QGp2QCf1ur/LkBjAxWxpWI3zcTgFub69OXu1mXBdz9tfKhlOg6DgDkEqtFBn/yEzB9s/LlGBlcNa5E/D7fG7jbIruXEb+kBd4GSC6x2q1Hk9sAD3dSvhwjgyvnSsTvw52tc/DPuADcuYIHf3IdBwByWUGp/NuIVSKDp3UD/qLiSXLnz5/H4MGDGRl8A67smzHN5dfECq5H/FohlIv0xwGANGG1yOBX+6t7XLIrv+WalStnRwY1BN4YKL8mZnexCJjIiF/SEAcA0syJfGCCRSKDvWzA7EQ5Y16p/fv3MzL4V65E/HatC7yXJF/5b3YFv0b8WuUsGxnDAm8dMlKGhSKDfbzk5wa0VHG/OSOD/z/iNy0tTfGy8RHAh8PkxEazs9p1NmQc5gCQ5rKvyM8OGNrYApHBXsDghsD6o8Blhb/QZ2ZmIicnx7KRwY8++ig++ugjxcvFhgBLbgXCA3Roys0w4pf0xAGAdJF1GbhwDRjYQHQn+gvwAfrHAV8fAa4qjAzevXs3bDYb+vTpo0tv7ur555/Ha6+9pni58GrAwjFATLAOTbmhZ7cACxnxSzrhAEC62ZcLSBLQzQKpbKH+QO9YOSyoROFZfatFBs+dOxdPPvmk4uWCfIEFY+TT/1bw+k5gzm7RXZCZcQAgXX17GgjxA9pFi+5Ef5EBQPtoIPUw4FD43ACrRAarjfj18QLmJwOd6ujUmJv5bB/w0jbRXZDZMQmQdGe3Af8dDAxrIroTY6zLAu5ZBZQrHALMHhmsNuL3t8hpi/z7WZsF3MOIXzIABwAyhI8X8HEy0CdWdCfG+Hw/8NRG5cuZNTLYlYjff/YF7myrQ1NuaOcpOVSr1Lo3h5CBeBsgGaLMAdy7Sr4uwAomtgKe6Kp8OTNGBrsSfvRkN+sc/A9dAO76mgd/Mg4HADJM4a+RwVkWCTOZ2hm4+xbly5kpMtiV7+W2NsCj1rguEifygAlLrRGiRe6DAwAZ6pLF4kyf7QUkq/js2gyRwa6czUhsCLzUV4em3NCFa/JgfP6a6E7IajgAkOFOXpEfaJJvgd927Dbg3UR11z54cmSwKxG/3WOAOUPkuGWzu/4grWOeO+eRB+MAQEJkXLTOI0297cAHw+RbBJXyxMhgVyJ+29SSb/fz9dKhMTdT5gDu/hr42SLXxZD7YQ4ACZNdABy0SGSwjx1IaAikHZM/BlHC0yKD1Ub81g+VU/7C/HVoys04JOCB1cCGY6I7ISvjAEBCHb0sPzsgsZH5H+lazUf+bHvlEfnUrxKeEhn83HPPqYr4rRUILL0ViA7UoSk3IwH4+0Zg6SHRnZDVcQAg4Q5ekJPzulsgMjjIV44MTj0MFCv8+MPdI4NVR/z6AQtGA41q6NCUG3ptJ/CB8ksjiDTHAYDcwnengWA/dZ+Te5qIAKBbXfm5AWUmiQxWG/Hr7w18PhK4JUqnxtzMpz8BL28X3QWRjEmA5DZsAN5KAMY0E92JMTYck4NfPD0yWG3Er5cNeG8okNRIp8bcTGom8NAa+RG/RO6AAwC5FW878Mlw60QGL80AHlmr/E3oLpHB+/btQ+/evRXnFdgAvD4QmNBSn77czY5Tcv4FU/7InfA2QHIr5U5gytfA7rOiOzHG6Hhgeg/ly7lDZHBWVhYSEhJUhRX9o6d1Dv4/5ci3vPLgT+6GAwC5naJy4PYVwC+XRHdijAc6APe1V76cyMjg8+fPIykpSdW272gL3N9Bh6bc0PE8YHKKHINN5G44AJBbulQETFgOnCkQ3YkxnukJjFNxXZ+IyGBXzj6Migde7KN5S24ppxAYv5QRv+S+OACQ2zpTAExKsUZksA3A6wOAwSouiDMyMtiViN/+ccCbCeYPfQKAghL53+6pK6I7IaoYBwByaxkXgYkpwLUy0Z3oz8sGzEoEOtVWvqwRkcGuRPzeEgW8N0S+yNPsisuByanAgfOiOyG6OeYAkNs7WygPAlaIDPa2A0MaAZtOKD91rHdk8COPPKIq4rdpuBzxG+SnQ1NuxiEBD64GtpwQ3QlR5TgAkEewUmSwn7f83IDVvyh/Pvzu3bsBQPPI4Oeeew6vv/664uWiA4FFtwI1q2vajluSAEzbACzPEN0JUdVwACCPcfCC/AS1HvVEd6K/QF9gQByw4rDyjz+2bt2qaWTwe++9h2nTpileLswfWHyr/JAfK3h1OzB/r+guiKqOAwB5lO/PyHn6VogMDvUHutaVE+RERQanpKTg9ttvVxzxW+3XiN9WNV3avMf45CfglR2iuyBShkmA5HFsAN4cBNzaXHQnxthxSr4QUmmQjK+vL77++msMGjRI1XY3b96MwYMHo6RE2ecQ3nbg4+FA3/qqGdoUMwAAIABJREFUNutxUjKBvzHilzwQBwDySN524KNkoF990Z0YIzUTeGit8oNMUFAQtmzZojgyeN++fejVqxfy8/MVLWeDfKufVYaz7Sfl2/2Y8keeyAI35ZAZlTuBe1YCuywSGTy8KfBSH+XLFRQUKA7tycrKwsCBAxUf/AHgud7WOfjvZcQveTgOAOSxisqB21OBIxaJDJ7cBni4k/LllEQGnz9/HgMHDkRubq7i7TzSGbhb7LOJDHM94veqBfIpyLw4AJBHu1wMTFgGnLZIZPC0bsBfVTxEpyqRwVeuXEHv3r1x7Ngxxesf0xx4spvyvjzR9YjfC4z4JQ/HAYA83tlC+XPYPP2TcIWzAXilPzCksfJl9+/fjxEjRtwwMri0tBSDBg3CoUOHFK93UEPgjYHmz2cA5IjfiYz4JZPgAECmkGmxyODZiUAvFXkIW7duxciRI1FeXv7bnzmdTgwcOBDfffed4vV1rQu8l2SdiN/bUoGDjPglk7DA25as4sdzwH2r5QsEzc7HC5g3FGip4j77tWvXYuzYsb/9d3JyMtLT0xWvJz4C+HCYnFxodg4JeGgN8P1p0Z0QaYe3AZLpjI4H3k60xinpi0XAiEVyVLJSw4cPR1lZGVavXq142dgQIGWcdSJ+n0wDvvpZdCdE2uIAQKb0YAdgeg/RXRjjRL48BOReNWZ74dXkg3+DMGO2J9q/tgH/3SW6CyLt8SMAMqXZu4C5u0V3YYzYEOCrkUCwAU/bC/IFvhhlnYP/xz/x4E/mxQGATOuf24BFB0V3YYz4CGC+zp/HX7/uwCr5/sszgBmbRXdBpB8OAGRaEoAnNwCbjovuxBh6XpHvZQNmJQK9YrVftzvadhKYup75/mRuHADI1K5HBv9wRnQnxhjUAPhXX+3X+3wfYGgT7dfrjvaeA+5aIT96msjM+DhgMr1yJ7AuCxjYQL6Azexa15J/Y9+Zrc36pnUD7u+gzbrc3bE8OeUvX9kDEIk8Es8AkCVcLgbGLwOyLZLg9mhn4O5bXF/PbW3kjH8rOMeIX7IYDgBkGecK5UfqWsWzvYC2tdQv37aWPh8nuKv7VllnQCQCOACQhfh7A093F92FcZZnAj/lqF/+pxzr3EUByANTgI/oLoiMwwGALMHLBrybCHSuI7oTY2w8Bjy23rWULwnAtDRgzS9adeXe2kUDcyzyXAMigAMAWYANwL8HAEmNRHdiDC2fiWC1DPwBDYCZg6wRI03EAYBM7+kewIQWorswxuFL2j8V0WpPwRvdDPi7RWKkydo4AJCp3d5Gfi6AFZwrBCYuB/KKtV93QQkwKcU6F8k91BG4p73oLoj0xQGATGtEU+CffUR3YYzrtzmeLtBvG1a7Te7ZXsBYi5w5ImviAECm1CMGeHMQYLfAh7nF5cAdK4Ajl/Tf1rE8YHIqcFXDjxjclQ3A6wOAfvVFd0KkDw4AZDptawHzkwFfL9Gd6K/cCdytMuo4JiYGcXFxipezUlSutx2YNwzoUFt0J0Ta4wBAphIXCnwyHKhugfu5JQDTNqp72FFUVBQOHDiAAwcOoGnTpoqXt9LDcqp5Ax8PBxrXEN0JkbY4AJBpRAUCC0YBEQGiOzHGP7cBCw8oXy4iIgIHDx5EUFAQqlWrhu+++07VELA8A3h2i/Lte6Iwf+Cr0UCdINGdEGmHAwCZQpAf8NlwoG6w6E6MMWc3MHe38uVCQ0OxZ88ehIWF/fZnISEh2LRpE+rVq6d4fR/tBd5T0Ycnig4EPh8JhPqL7oRIGxwAyOP5ewOfDgeaR4ruxBjLMoB/bVO+XFBQEL755hvExMT86e9q166NjRs3olYt5Q8PeCkdWKDiTIQnahIuDwGMDCYz4ABAHs3LBsxKBDpZ5CKtjcfkz96VfvTu5+eHdevWIT4+vsKvadSoEVauXInAwEBF674eGbw2S2FTHuqWKOC9IYwMJs/Hf8LksWwAXhsADLZIxO9elRG/3t7eSElJQdeuXSv92g4dOiA1NRV+fn6KtuGQgAdXWycyuH8cI4PJ83kBeF50E0RqPNMTuKON6C6McfgSMHYpUFCqbDmbzYaPPvoIo0ePrvIycXFxaNSoEZYvXw5Jqvq5hnInsPoX+eAYaYELMZtHAv4+8h0RRJ6IAwB5pDvaAE91E92FMc4Vygf/3KvKl505cybuu+8+xcu1bNkSkZGRWL16taLlSh3A+qPAkMZAsLKTCB6pY205FGn3WdGdECnHAYA8zsh4+dS/zQLnXy8XA2OXyAl8Sk2fPh3/+Mc/VG+7Y8eOKC0txfbt2xUtV1gqX6uQ3NQaF8v1ipUjmA9Y5GFJZB4cAMij9KwHzLXIM9uLy+UH8OzPVb7spEmT8O6778Lm4pTUr18/nD59Gnv27FG0XF4x8O1pYES8+RMZbZA/9tiXq25QIxLFBuUXFBMJ0TYKWDTaGil/5U45319Nyt+wYcOwbNkyeHt7a9KLw+HA2LFjsWzZMsXL9qwHfDYC8DH5EADIA9v4pepimYlE4ABAHiEuFEgZa42UPwnA42nqUv66dOmCDRs2oHr16pr2VFRUhISEBGzbpjyAYFQ88HaiNR7MdLkYGLUIOHxRdCdElbPAiVTydFaL+H1JZcRvy5YtsXr1as0P/gBQrVo1fP3112jbtq3iZZdlAC8ru4zAY4X5A1+Nsk4iJXk2DgDk1qz2A/Wjn9RF68bExGD16tV/iPjVWkhICFatWoX69esrXnbOLutEBkcFAgtGW2dgJc/FAYDclr838FEy0MQiT2FbpvLhOhEREVi/fv0NI361Vrt2baSlpamODFZzZsMTWemplOS5OACQW/K2A+8Pke+ztoJtJ4HH0pQ/XjcgIAArVqy4acSv1lyKDN4AbDqmT1/upm0U8GGyNS6AJM/EAYDcjg3Aa/2BfnGiOzHG3nPAXV8DZQ5ly/n4+GDp0qVVivjVmtrI4HIncPdK61wp37Me8OYga1wASZ6HAwC5nRk9gXEtRHdhjGN5wOQVcpqcEjabDR988AESExP1aawK+vXrh48//hh2u7IfI8XlwB2p1rlSfmQ88GIf0V0Q/RmDgMitPNABmNpFdBfGOFcIjFki/69SaiN+taY2Mri4HFiXZZ3I4FuigKJyYJdFznyQZ+AAQG5jdDzwcj9rPGGtoAQYtww4eln5sv/4xz9civjVWseOHVFWVqY4I6CwFEg/CYxoKl/waXY9Y4EzBcDPjAwmN8EBgNxC/zjgv0mAlwWO/sXlwMQU4Kcc5ctOmjQJ77zzjssRv1pTGxl8sQjYmS2fJjf7xXI2AAMaABkXgF8uie6GiAMAuYFbouRbpvws8FugQwLuXw1sVfEI2WHDhuHLL7+El5f7HSltNhuGDBmCAwcO4NChQ4qWPVcIHDwPDGti/ovl7DZgUEP5OQmnC0R3Q1bHKGASqmk4sOxWINRfdCf6kwA8kQYsUBnxu3HjRgQEuHe6THFxMRISEpCenq542VHxwDuDrfMR0KjF8uBDJArvAiBhogPlB8VY4eAPyBG/ag7+1yN+3f3gDwD+/v4uRQb/S/mjBjxSkB/w+QggxiIJl+SeOACQENcjfusEie7EGO4c8au14OBglyKD51okMrgWI4NJMA4AZLhq3sDHw4HGFon4Xe4BEb9acyUy+J8WigyuHwp8MoKRwSQGBwAylLcdmDcU6BAtuhNjbDsJTPWQiF+tXY8MDgpSdprnt8jg47q05Xba1gLmJwO+7ndtJ5kcBwAyjA3AfwYA/eqL7sQYrkT8Llu2TEjEr9Y6dOiAlJQUVZHB93xtncjgHvWANxPMfxcEuRcOAGSYZ3sBtzYX3YUxXI34TUhI0KcxAdRGBhf9Ghl8xCL3zI9oCvyzr+guyEqYA0CGeKgj8Ghn0V0YwwwRv1pzJTJ4bRYwtIk1IoPbRgElDuuc+SCxOACQ7kbHA/+yUMTv+OVAlgkifrXmSmTw1hPWiQzuUQ84Wwj8nCu6EzI7DgCkqwEWjPjdqyLi97bbbnPLiF+tuRIZ/E02MMIikcH9GwCZF6zz8QeJwQGAdNMuGvg42ToRvw+skX9TVcqdI361xsjgqrkeGfwdI4NJR4wCJl0w4rdqPCXiV2uuRAaPbga8nWidj5RGLwYOMDKYdMC7AEhz0YFyzKkVDv6AHF9r9ohfrbkSGbz0EPCyhSKDP2NkMOmEAwBpqkY1YMEooLZFIn4//gmYY5GIX61djwyOi4tTvOx/LRgZHGm9OZF0xgGANFPNW/7Mv5GFIn5nbFG+XEREBNLS0jwy4ldrrkYGL2JkMJFqHABIE9524P2hQHtG/N7U9Yjfpk2b6tOYB2rYsKHqyOAnLRQZ3KYW8NFwRgaTdjgAkMtsAN4YCPStL7gRg+zNYcSv1lyNDN5lkeCc7jHAW4wMJo1wACCXPdcLGNNMdBfGOJYHTE5lxK8eXIkMvt1CkcHDmwIvMTKYNMAcAHLJw53ksoKcq8BolRG/b775Ju69917tmzKZli1bombNmli1apWi5YrLgXVZwBALRQaXO+WcACK1OACQamOayQ8vscLZyIISYNwydRG/zzzzDKZPn659UybVsWNHlJeXq4oMTj8h/4Zshcjg7vXkYXQ/I4NJJQ4ApMrABsDswYz4rcxtt92Gt99+2/QRv1rr27cvI4MrcT0y+PBF63z8QdriAECKtY8GPh4O+Jn8ByzAiF9RGBlcNXYbMKiB/FFANiODSSFGAZMi8eHAsrFAiAU+Z5UAPJkGfKXiXvOuXbtiw4YNlkz50xIjg6umoBQYs5hPECRleBcAVVntIDmW1AoHfwB4ebu6g3/Lli2xatUqHvw1cD0y+JZbblG87NJDwCvbdWjKDQX5yu/NeiGiOyFPwgGAqsSKEb//3aV8OUb8as+VyODZPwDzLBIZXLO6/B5lZDBVFQcAqlSgL/DFSKChRY5pKZmM+HU30dHRqiODX7RQZHBsKPDVaGvcCkmu4wBAN+XjBcwdArSuKboTY2w/BUxdz4hfd8TI4KppFgF8OIyRwVQ5DgBUIbsNeDcB6BMruhNj7M0B7lwBlDLi12116NABqampjAyuRLcYYM4Qa9ymS+pxAKAKPdtLvpXKCo67EPH74YcfMuLXQH379sUnn3zCyOBKJDZkZDDdHHMA6IYe7Qz8raPoLoyRcxUYw4hfj8LI4KppEyVnWTAymG6EAwD9ycRW8gN+rIARv56LkcFV0z0GyCsGfjwnuhNyNxwA6A8GNbDO40aLy4FJqcBeFT8YGfHrHvr27YszZ84wMrgSveszMpj+jAMA/aZrXeAji1w97JCAB9cAW1RE/CYnJ+OLL75gxK8bsNlsSEpKwsGDB3Hw4EFFy54rBA5dsE5kcGJDYM854ES+6G7IXTAKmAAA8RHAslutkfLnSsRvr169sG7dOvj7+2veF6lXWlqKIUOGYMOGDYqXZWQwWRXvAiDEhgBfjbTGwR+Q42HVRvympKTw4O+GfH19sXTpUtWRwa9aKDL4y1FAA4uEetHNcQCwuPBqcoZ4zeqiOzHGJz8Bs1VE/MbFxWH9+vWM+HVjwcHBWLt2LRo3bqx42VkWigwOrwZ8bqH3PFWMA4CFWTHi95ktyperWbMm1q1bh+joaM17EqmkpAQlJSWi29DU9VsDa9ZUHl35YjqwWNllBB4rNlQ+E2CFWyGpYhwALMrHC5g3BGjFiN+bCgoKwurVq1X9VunOnE4nJk2ahLFjx6K8vFx0O5pq3Lgx0tLSEBKi7NF4EoAn0qwVGTw/GfCzwK2QdGMcACzIbgNmJQK9GfF7Uz4+Pli8eDHat2+vT2MCTZ06FYsXL8aKFSswZcoUSJK5rgVu3bo1li9fzsjgSnStC8xJYmSwVfE2QAt6oQ8wvoXoLoxxPA8YvwzIU3im226344svvsDw4cP1aUyg5557Dq+99tpv//3TTz+hvLwc/fr1E9iV9uLi4tCyZUssWbJE0YBT7gTWH5UzMWpU07FBN9GoBhARAGw4JroTMhoHAIt5vAvwYAfRXRjjesTvWRURvzNnzsSUKVO0b0qw9957D9OmTfvTn2/btg3BwcGme6BRfHw8IiMjFUcGF1ktMvjXpyx/ky22DzIWBwALmdhKfsCPFbgS8Ttjxgw8/fTT2jclWEpKCm6//fYKfxtOS0tDbGws2rZta3Bn+urYsSMcDgfS09MVLWe1yOBuMUB+CSODrYQDgEUkNATeZsRvpe6++27MnDlT+6YE27x5M0aOHImysps/7nD16tVo37696S567NevHy5evIjvv/9e0XIXi4BvTwMjmlokMjhWjgs+fFF0J2QEJgFaQNe6wBcjrHG1r0MC7lsFrP5F+bLJyclYunQpvL3NtaP27duH3r17Iy8vr0pfX61aNaxfvx49evTQuTNjORwOjB8/HkuWLFG87IAGwIfDAG8LXDZd5pAfjb1VRUw2eRYOACbXsiawZIycAGZ2Dgl4dB2wLEP5sr1798batWtNl/KXlZWFHj164Nw5ZadDQkJCsHXrVrRp00anzsRwNTL4zQRrXDHPyGBrsMA8a21NawABPqK70F+5E3h4rbqDf6tWrbB8+XLTHfzPnz+PpKQkxQd/AMjPz0dSUhKOHz+ufWMCuRoZ/MhaedA0uwAfoGm46C5IbzwDYAEJDYE5g837EYArv/nHxcVhx44dpkv5u3LlCvr06YMff/zRpfU0atQI27dvR61atTTqzD3k5uaiR48eOHLkiOJlhzYBZg8278cBZQ7gobXAysOiOyG9mfSfMP3euizgrpXyrU1mc6UEuD1V3cE/IiICa9asMd3Bv7S0FGPGjHH54A8Av/zyC4YOHYqCggINOnMfNWvWxJo1a1QNNisPy8FSBeZKUQYAXCuTP//nwd8aeAbAQlpEyvG/9UNFd6KNo5eBO7+Wr1pWKigoCJs3bzZdyp8rF7rdTN++fbFmzRrFyXruTukFkr8XFypH6TYxyanyY3nA3V8Dhy6I7oSMwjMAFnLgPJD4FbBGxRXy7mZdFpD0lbqDv6+vr6kjfrU++APybYTjx4+Hw6EwT9nNtW7dGsuWLVM12BzLA5IXAuuzdGjMYKuOAIO/4MHfapgDYDGlDuDrw8DlYqBzHcDXw+5tzisGntoIvLJDebY/YO6I3xkzZuA///mPbuvPyMhATk4Ohg4dqts2RFAbGQzI/wZTM4FTV4AudT0vMKiwVH4K4kvpQIm5ZjuqAg4AFvXjOWDRQSA8AGgeKbqbqtlwTA74+d6FB7XMnDkTd911l3ZNuYk5c+bgqaee0n07u3fvhiRJ6Nu3r+7bMpLayODrDp6XHyVcN9hzPhLYcBS4LQVIPym6ExKFA4CFXS0D1mbJ9/q2jHTfB5/sPSc/yvft7+XfWNQyc8TvHXfcYdgT/bZu3YrQ0FB06dLFkO0ZRW1k8HXXyoCVR4A9Z4GGNYCoQI0b1MiRS8Dj64E3vpXv9yfr4kWABECOCO4fBzzRRQ4PcgeHLwFvfCN/PunqP9J77rkHc+fO1aQvd7J582YMHjwYJSXGXpJus9nw0UcfYfLkyYZu1wgPP/ww3n33XZfX07Me8ExPN3o/XQRm7wKWH7JGlgFVjgMA/YHdBiQ2BP7SEugVa3zqWZlDfhTrlz/LpyadGvzrZMSvPnx8fJCamorBgwcL2b5etLyTwm6T8/UntJQfL2z08wQckhzp+9V++WyfFu8nMg8OAFShWtXl+NPR8UB8hH7bcUjA/hzg6yPAkkPAhWvardvMEb/du3dHTk6O0D4CAgKwfv16dO/eXWgfWnMlMrgiEQHArc2BoY2BVrX0Ha4PXQCWHQKWZgA5Kh6HTdbAAYCqpGZ1oEeMXF3qAvVC5H88apQ75Vuovj8jP251+yn56n6ttWrVClu3bkVYWJj2KxfIlRQ7PYSHhyM9PR3NmzcX3YqmtEpTvJFQf6BHPaBXPflunPqh6pMFJQAn84BvTgM7Tsrvp9yrmrZLJsUBgFTx9wYahgENwoAGoUBYNSDQV37oULCffKqxsFQ+sBeWys8Zz7okX4B0NE8eAvTEiF9j1alTBzt27EBsbKzoVjRl1LDlbZffS41ryO+rEH/5/RTqBwT6yYEtV0rki/YKS+XbeI9eBrIuy/9bbMKUT9IfBwAyncjISGzbtg1NmzYV3YqmiouLkZCQoPoqdb01btwY27dvR82abnLVm0bUPlGRyN0xCZBMJSgoCGvWrDHdwd/hcGDixIlue/AHgCNHjmDo0KEoLDTXh84NGzbEunXrEBpqkgxtot+RWCwzlK+vr7R27VrJbJxOpzRlyhTh+7eq1a9fP6m4uFj0btPcpk2bJD8/P+H7l8XSsIQ3wGK5XHa7XVq4cKHoY4Qupk+fLnz/Kq2RI0dK5eXloned5pYvXy55eXkJ378slkYlvAEWy+V66623RB8bdDF79mzh+1Zt3X///aJ3ny7mzJkjfN+yWFoUo4DJ4z377LP4+9//LroNzS1YsABTpkwxLOJXa7t27YLdbkfv3r1Ft6KpDh06wOl0uvX1GERVJXwKYbHU1j333CP6F0JdbNy40TSfN5v17Mzf/vY34fuWxXKxhDfAYqmq5ORkqaysTPRxQHM//PCDFBQUJHz/alV2u11asGCB6N2qufLycmnMmDHC9y+L5UIJb4DFUly9e/eWioqKRB8DNHfkyBGpVq1awvev1uXj42PKOzRKSkqkgQMHCt+/LJaaYhAQeRyzRvyeOXMG3bt3x/Hjx0W3oouAgABs2LABXbt2Fd2Kptw1nZGoMhwAyKOYNeI3Pz8fffr0wd69e0W3oquIiAikp6ejWbNmolvR1Pnz59G9e3e3eT4DUVUwCZA8RmRkJNasWWO6g39RURGGDRtm+oM/AFy4cAGDBg3CyZMnRbeiqev/NqOiokS3QlRlHADII5g94nfbtm2iWzFMdnY2Bg8ejIsXL4puRVOMDCZPwwGA3J6vry+WLFmC9u3bi25FU5Ik4d5778WyZctEt2K4gwcPIikpyXTPDWjdujWWLVsGPz8/0a0QVYnwKxFZrIrKzBG/Tz/9tPD9K7oGDBhgyucGMDKY5SElvAEWq8Iya4iMJ0f8al0TJkyQHA6H6JdEc4wMZnlACW+AxbphzZgxQ/TPcF18+eWXkt1uF75/3akefvhh0S+LLmbMmCF837JYNynhDbBYfyqzRvwuXLhQ8vHxEb5/3bEef/xx0S+PLhgZzHLX4kWA5JZCQkI89iE4Ffnkk0/wl7/8BWVlZaJbcUtvvPEGnn76adFtaEqSJPj7+4tug6hCwqcQFutGdfvtt5sm63/27Nk87V/FevLJJyWn0yn6JXNZWVmZNHnyZOH7k8W6SQlvgMWqsIYOHSrl5eWJ/lmuWklJiXT//fcL34+eVqNHj5YKCwtFv3yq5eXlSUlJScL3I4tVSQlvgMW6acXGxkrffPON6J/piuXm5kp9+vQRvv88tVq3bi0dPXpU9Muo2O7du6WGDRsK338sVhVKeAMsVqXl5+cnvfXWWx5zu9jixYtN+VQ/oys8PFz6/PPPRb+cVeJwOKQ333xT8vX1Fb7fWKwqlvAGWKwqV7t27aTvvvtO9M/6Cp09e5bPiNehkpKSpFOnTol+eSv0448/Sl27dhW+n1gshSW8ARZLUXl5eUkPPfSQlJubK/rn/m8KCwulV155RQoNDRW+f8xaYWFh0muvvSZdu3ZN9Mv9m5ycHOnBBx9k6h/LU0t4AyyWqqpevbr0yCOPSNnZ2cIOACUlJdLcuXOl6Oho4fvDKhUZGSm9+uqrQiOEc3JypKeeekoKCAgQvj9YLBdKeAMslkvl7+8v3XnnnVJ6erpht49lZmZKTz75pFSzZk3h379Vq06dOtKMGTOk48ePG/KaO51OaevWrdKdd94p+fv7C//+WSxXy/br/yEyhQYNGmDSpElISkpC+/bt4eXlpdm6Dx8+jPXr12PJkiVIT083XVCRp7Lb7UhISMDIkSMxaNAgxMbGarZuh8OB3bt3Y9WqVfjss89w7NgxzdZNJBoHADKtkJAQ9OrVC7169UKLFi3QpEkT1K9fv0pDQW5uLg4ePIiMjAzs2bMHaWlpOH78uP5Nk8uaNm2KAQMGoE2bNmjWrBmaNWuG8PDwSpdzOBw4fvw4Dh8+jAMHDiA9PR3p6enIz883oGsi43EAIEvx9fVFTEwMQkNDERISgqCgIPj6+uLy5cvIz8/HlStXcP78eVy6dEl0q6ShyMhI1KhRAyEhIQgJCUFoaChKS0tRUFCA/Px8XL58GdnZ2SgtLRXdKpFhOAAQERFZEB8GREREZEEcAIiIiCyIAwAREZEFcQAgIiKyIA4AREREFsQBgIiIyII4ABAREVkQBwAiIiIL4gBARERkQRwAiIiILIgDABERkQVxACAiIrIgDgBEREQWxAGAiIjIgjgAEBERWRAHACIiIgviAEBERGRBHACIiIgsiAMAERGRBXEAICIisiAOAERERBbEAYCIiMiCOAAQERFZEAcAIiIiC+IAQEREZEEcAIiIiCyIAwAREZEFcQAgIiKyIA4AREREFsQBgIiIyII4ABAREVkQBwAiIiIL4gBARERkQRwAiIiILIgDABERkQVxACAiIrIgDgBEREQWxAGAiIjIgjgAEBERWRAHACIiIgviAEBERGRBHACIiIgsiAMAERGRBXEAICIisiAOAERERBbEAYCIiMiCOAAQERFZEAcAIiIiC+IAQEREZEEcAIiIiCyIAwAREZEFcQAgIiKyIA4AREREFsQBgIiIyII4ABAREVmQt+gGlAoLC0PXrl1RvXp10a0AAIqKinDq1CmcOHECeXl5mq47KioKnTp1gp+fn6brVevq1as4efIkTpw4gYKCAsO2Gx0djdjYWERFRcHHx8eQbV68eBGnT5/G0aNHUVZWpss2bDYboqKiEB0djRo1aiAnJwc5OTnIzc3VZXtqhIWFoXbt2oiKikJeXh7etbN1AAAgAElEQVTOnDmDnJwcOJ1O1ev08vJCx44dERMTU+nXXr16FWfPnsXPP/+s2+tQVaGhoWjZsiUiIiIq/XdYXl6OgwcPIjMzU9MeAgMDUb9+fcTExCAwMFDTdVekuLgYp06dwsmTJ3Hp0iXdthMUFIS6deuiVq1aKCkpQXZ2NnJyclBaWqrbNpXw8/NDnTp1ULt2bQDA2bNncfr0aRQXFwvuzDWSJ5TdbpdeeOEFqaioSHJHDodD2rlzp/T3v/9dioyMdOl79ff3l+bOnSuVl5eL/rZuqKysTNq0aZP0yCOPSEFBQbq83s2bN5dee+01KTMzU+j3euXKFWnx4sXSuHHjJC8vL02+ty5dukizZ8+WsrOzb7jNo0ePSv/+97+lFi1aCHmvxcfHSy+99FKF+/7MmTPSnDlzpB49eihed0JCgnT8+HHFr8O1a9ekdevWSRMmTJB8fX0N2xdRUVHS008/Le3bt09yOp2K+96wYYNUp04dl3oIDAyUHnroISktLU0qLS1V3INWHA6H9N1330nTp0+XatWqpcn+jYyMlKZNmyZ98803ksPh+NM2CwsLpYULF0qjRo2S7Ha74e+FwMBAacqUKdK6deuksrKyP/VXXFwsrVq1Srrrrrskf39/Ie9XF0t4A1Wq2bNnG/FvXBNXrlyRnn32WalatWqKv0+bzSatWLFC9LdQZbm5udLDDz+s2cGxdu3a0vz5891y+Nm/f7+UlJSk+ntr2rSplJKSUuXtlZeXS7NmzZLCwsIMeY/VqFFDmjVr1g1/0FVk1apVUvPmzau0/v79+ytad0UOHz4sDR06VNd94evrK/3jH/+QCgsLXe73yJEjUmhoqOIe7Ha79MADD0hnz551uQetFRQUSM8//7wUEBCgav/6+/tLzzzzjJSfn1/lbf7www9S586dDXkv2Gw2aeLEidLp06er3N+JEyekSZMmGdKfhiW8gUqrffv2qqZv0Xbt2iXVrVtX0feanJwsum1V1q5dK4WEhLj0Onfu3Nktf9j9r7ffflvxbyNJSUlSXl6equ0dP35cio+P1/U91qJFC+nkyZOq+isqKpImTpx40/XbbDbNz+a89dZbko+Pj+b7om7dutLOnTs17fXll19W1ENgYKCiYVGUvXv3SvXq1VP0vUVHR0vffvutqu05nU7pscce0/W94OvrKy1YsED1Pvnqq69U/fInqIQ3UGn961//Uv1iiHbmzBmpadOmVf5eP/74Y9Etq3bw4EEpIiJC1WuclJTkth/v3MiiRYuqPAQEBwdLOTk5Lm3vwoULUseOHXV5f3Xv3l26fPmyS/1dvHhRCg8Pr3AbrVq1cmn9FVm8eLHk7e2t2b6IiYmRjh07pnmfGRkZVe4hLCxM2rt3r+Y96OXMmTNSkyZNqvz9/fe//3V5my+88IIu74XAwEBp06ZNLvd3++2369KfDiW8gUrrs88+c/kFESkzM7PKp3E3btwoul2XbNmyRfFvZc2aNVP927FIr7zySpW/xw4dOkgFBQUube/y5ctS69atNX1vtWzZUrp06ZJLfV27dk3q2bPnTbczZMgQl7ZxM7NmzdJkX1SvXl06ePCgLj1eu3atSj14eXlJq1at0qUHPWVkZFT5Yw5fX19p/fr1Lm/zqaee0vS94OPjI61Zs8blvmbPnq1pXzqX8AYqrS+//NLlF0W0lJSUKn2vW7ZsEd2qy/79739X+bX18/OTjhw5IrplVZxOp6LPovv16ycVFxe7tM3s7Gypfv36mryv4uLipDNnzrjUT3l5uTRq1KhKtzV8+HCXtlOZYcOGubw/PvjgA936KykpqVIPL774om496G3x4sVV3tfBwcHSnj17XNqe0+mUpkyZosl7wWazaXL29auvvhJysaILJbyBSssMA4AkSVK/fv0q/V7NMACUlJRIcXFxVXptp06dKrpdl2RkZCg6BT1+/PgbXu2sxJEjR1y+CjsiIkLKyMhwqQ+n0yndddddVdqe3gPA0aNHXbo7oEOHDrpeZ1SVASA6Olq6evWqbj0YoVu3blXe55GRkS5fF1JeXi6NHj3a5WPMzJkzXf7eN27cKPn5+Qk5RrpQwhuotMwyAGzbtq3S79UMA4AkSdLcuXMr/V79/Pyk3Nxc0a267C9/+Yuif88PPPCAy9v8/vvvVd+CGRQUJO3atcvlHqZNm1blbeo9AEiSJD366KOqf8Zocer3ZqoyALz99tu69mCEtLQ0Rfu9YcOGLl/4W1JSIg0cOFD1az99+nSXv+8ffvhBCgwMFHqcVFnCG6i0zDIAOJ3OSu8KMMsAcPHixUp/M05MTBTdpiaq+vHO70uLC1vV/Mbh6+srrV271uVtK/3c3YgBIDs7W9VZgFatWul+l1FlA4DNZqswF8KTOBwOqWbNmor2f+vWrV2+CDU/P19q166d4td+0qRJLr/2WpyRE1WMAjaQzWbDkCFDRLdhiBo1aqBLly43/ZqhQ4ca1I2+BgwYAH9/f0XLPPPMM/jggw9c2m6/fv2wYMECeHl5Venr7XY7PvvsMyQkJLi03S+//BIPP/ywS+vQQ506dTBu3DjFyz355JOw2Ww6dFR17du3R506dYT2oAW73Y7ExERFy+zbtw8jR450KVEvODgYa9euRZMmTaq8zLBhwzB//nyXXvszZ85g4MCByMnJUb0OkTgAGKxdu3aiWzBM+/btb/r3ZtkX1atXR3x8vKJlJEnCfffdh6VLl7q07REjRmDWrFlV+tqZM2di7NixLm1vw4YNuOOOO1yKAtaT0oO52qFBa5W9VzyJmvf1li1bMH78eDgcDtXbjYyMxJo1axAdHV3p13bp0gULFiyAt7f6NPz8/HwMGTIEx48fV70O0TgAGKxu3bqiWzBMZb/RmGlfqPleHA4HJk6ciPT0dJe2fd999+H555+/6dfMmDEDjzzyiEvb+f777zFy5Ei3yWa/kVatWqF///5V/vqpU6fC19dXx46qxgy//V+n9n2dmpqKBx980KVtN2jQAOvWrUNYWFiFX9OyZUusXr0aAQEBqrdTVFSEYcOGYe/evarX4Q487mFAVbVw4ULk5+drvl6bzYYWLVqgY8eOqh5Mc/1BElr68ssvUVhYqPl6vb290b59e7Rq1Qp2u/JZsbLvtVatWqr6unz5MjZv3owLFy6oWv5GAgMD0a1bN9SvX1/V8mpf1+LiYgwbNgxbtmzBLbfcomodAPDcc8/h8uXLePvtt//0d/fccw9efPFF1esGgCNHjmDYsGG6/DuryNWrV/HRRx9h6NChil6Xxx9/HBs2bKj064KDgzFlyhRFPW3evBkXL17EmDFjFC1XmaioKFXLOZ1O7NixA4cPH3bpt+ffs9vtaNmyJTp06KDqN+Sq/AZekblz5yI6OhrPPfec6nW0atUKq1atwoABA3Dt2rU//F1MTAxWr1590wGhMtcH923btqlehzsRfiFCZaXmIsDGjRvr2lP9+vWlo0ePKu7r559/vul61VwEqDSKU2m1bdtWunDhguK+FixYcNP1qrn4Zu3atVL16tV1+17VXhT04IMPurTdmjVrSocPH1a83d9zOBzSuHHj/rDe5ORkl/P3s7OzpdjYWJe+PzUXAc6bN08CILVr107Rck6nU2rZsmWlPT3xxBOK1nv48GHJy8tLstls0sWLFxUtW9lFgPPnz1e0PklSf+FbVat+/fqqMjq+//57l7etxR0RK1as+MOFyBEREdKhQ4dcWqeSW189ofgRgErHjx/HSy+9JLoNQ+zdu/eGv1mKMH36dFy9elW39X/22WfYuHGjbuuvSG5uLgYPHuzSxUTXL/K7fhFW7969sXDhQk0+5zxx4oTqdah1/be3PXv2KHpNbDYbHnvssZt+jY+Pj+ILGd988004HA5IkoSioiJFy+rhk08+wZ49e3Rb//Hjxyv9aEkvU6dOxeLFi11ax7Bhw/DRRx/BZrMhICAAK1asUHytzv+aPn06PvzwQ5fW4U44ALjgm2++Ed2CYXbs2CG6BeTl5RnymdvOnTt138aNZGVlYciQISgoKFC9Dh8fHyxevBh33nknUlNTFd+d8HvXrl1DUlISfvrpJ9Xr0Mobb7yh6OsnTpx408+iJ0yYgJiYmCqv79KlS/j0008V9aC3LVu26L4NUe97p9OJSZMmYfPmzS6tZ+LEiXj99df/r717j6qySv8A/uVwUe4ikpYzmZWWOEk1K4y0MgcN04Qa6aa10spLNlRL0/FX45KxNZGaaWqJmUUTlqajNg6YLJNSxzEcHbBwAkNTEAHlKsjhcvbvj+NplIRz9ns9HL6ftfYahzj7ed5z4X3Ofve7N7Zs2YKYmBhVfS1fvhwpKSmq+nA3LABUMPJ6qNnc4Virq6sNmX1u5rH++9//Rnx8PKxWq+I+goKC8MEHHyA0NFRxH47rnGYVQ21lZmZKFSK+vr54/vnn2/3vL7/8slT8FStW6DrypERlZaXuMcz8LFitViQkJKge5Zg1axZGjx6tqo9PP/3U6ahSZ8QCgMjN7N69W/UtUWoIITB16lRs2bLFlPjtkb0MNX36dAQFBf3i53Fxcbj11ltd7sdqtWL16tVSsUkbtbW1iIuLQ0FBgWk57Nq1y61vfVWDBQCRG9q6dSteeOEFU2LPmTMH69atMyV2Rz755BMUFxe7/PthYWGYPHnyL34+e/ZsqbhpaWk4c+aM1GNIOxUVFRgzZowpr0FOTg4SEhJUjci5MxYARG5q9erVWLhwoaExV65ciSVLlhga01XNzc149913pR7z8ssvXzYJMioqCiNHjnT58UIILFu2TComaa+oqAijR49GdXW1YTGPHTuGcePGucXlT72wACCXKFnzgNSbP38+VqxYYUis9PR01YsF6W316tVSf5D79++PhISEn///nDlzpFYK/Pvf/46jR49K5Uj6OHLkiOolg13lWOK3vLxc91hmYgFALhk6dKjZKXRZL730kupbopz5xz/+0Smuc1ZVVUnfhjVnzhwA9hXqEhMTpR4re/cB6Ss7OxuPPvooWlpadItRU1ODBx54oFMv8esqFgDklJ+fHyZOnCj9OE+9bmY0m82GSZMmISsrS5f+v/32Wzz66KNobm7WpX+tLVu2TOoEcMcdd2DYsGGYNWuW1EjWwYMHVS/TTNr74osvVC8Z3J4LFy5g3LhxbnHrqxE8dilgIyhZHlcPw4cP12WoymKxYMCAAXj22WelZk07lJaWap5TV9XU1IQJEyZg9+7dmm6ilJ+fjzFjxrjdLW4dOXHiBDZv3iy1ic+CBQukR7HcdS4EAWvWrEGfPn2QnJysWZ+tra2YOHEi9u7dq1mf7o4FgAq/+c1vzE4BgP3arTs6efKk2Sl4FMctUXv37pXa9rQ9JSUleOCBBwy5n1xrS5YskSoAYmNjpfp3FBnkvv785z+jZ8+emsxbcddbX/XmHl9hO6nx48dLP6azDLNqgcOn2quoqNDsuvSSJUtMWeJXCwcPHsTXX3+tW/+ylxnIHAsXLlS1cqbD4cOHkZaWpkFGnQsLAEmOYfE33nhDeicxwP6tqysoKSnB999/b3YaHic6OhpLly7VpK8333wTo0aN0qQvM+g1QU/JREMynr+/P7Zu3Yrg4GDVfd1+++3St5h6Ao+9BGDmylEdOXXqlNkpGGLlypUQQpidhkeJjIxEZmYmAgMDNenPz88PmzZtwn333afrpjJ62b59O/Lz8xEZGalpv6mpqR5977cn8Pb2Rnp6OoYPH65Zn1OnTsWZM2dUbUXc2XAEwGA5OTlmp6C7yspKLp2qsb59+yIjIwM9e/bUtN+QkBDs2LFDkzkFRtNjkZ7m5masWrVK0z5JW15eXlizZg0eeughzfueP3++26+FoSUWAAay2WzIyMgwOw3dPf/884au2OXpwsPDkZWVhX79+unSf0REBDIyMtCnTx9d+tfTxx9/rOkSsenp6VLLDZPxUlJSMGXKFN36X7p0KR555BHd+ncnLAAMtHv3bo9fUzw1NRUbNmwwOw2PERAQgG3btmHQoEG6xrnhhhvw5ZdfokePHrrG0ZrVatX02i2X/XVvM2fO/HlhJ71YLBb89a9/Vb2DYGfAAsBAf/rTn8xOQVdpaWkdbsFKcnx9fbFp0yYMGzbMkHhDhgzBli1b0L17d0PiaWXVqlWarGOwY8eOLrMATGf0xBNP4J133jEklmN+zG9/+1tD4pmFBYBB0tPTsX//frPT0EVLSwuSk5MxZcoUt19KtrNwXOccM2aMoXFHjBiBzz77DN7e3obGVaOyshIfffSR6n647K/7io2NxYcffmjo4mvBwcHIzMzETTfdZFhMo7EAMEBubi6mT59udhqaE0Jg+/btiI6OxoIFC3jy19DixYvx9NNPmxI7Pj6+002Ee+utt9Da2qr48UeOHMGuXbs0zIi0Eh0djS1btsDPz8/w2BEREcjMzMTVV19teGwjsADQ2bFjxzB+/HiPuq0oPz8fycnJGDJkCB588EEcPnzY7JQ8ypw5czBr1ixVfai9BXPatGmd6nao48ePq1rFbfHixbxt1Q0NGjQIGRkZCAoKUtyH2te1f//+yMzMRGhoqKp+3BELAB198803uOuuu3RfErdfv37w8vKSbkFBQYrWSzh9+jSSk5Px3Xff6XA07QsPD5faylUprW+1kzFp0iSkpKSo6qOkpATDhg3D8ePHVfWzYMECJCUlqerDSIsWLVL0uJKSkk45cbVXr166x9DrzhNX9O3bF5mZmQgPD1fchxACzz33nOottaOiorBt27ZONz/GGRYAOiguLsbUqVMxcuRIVFRUmJ1Ou+rr6zFx4kTp5YljY2NNOTEEBwcjJiZG1xheXl548MEHdY3RnrFjx+LDDz9UVeTU1NRg7Nix2L9/P0aNGoWysjJVOb399tvSW+iaJScnR9FGLsuXL0dTU5MOGenLiFnqZs2EDw0NRUZGhuoC5NVXX8UHH3ygyZba9957LzZs2AAfH89aP0+4e1u/fr1wd9XV1WLDhg1i0qRJwt/fX/GxZmdnS8e+9tprVT2/CxYskI7Z2NgohgwZoiquzWaTjvv999+L2267TZf3WWBgoFi0aJF0TkIIMXPmTFWxhw4dKs6fP68otkNDQ4MYPnz4Zf1GRUWJ6upqVf1arVYxevRoVccXHx8vHXfZsmXScRISEqRi1NbWih49ekjHKS4ulopjtVo77G/dunVS/QkhRHNzs3jmmWdEt27ddPk8jB49WlRWVkrn9e2336qK6+/vL/bs2SMdt61Vq1Zd1q+fn5/YuXOn6n7XrFmjy/NtRvOsUuYSjz32GM6dO6d7nPLycpSUlBgSqz2NjY2qHv/6668jLi5OarvUbt26IS0tDUOHDlX87amxsRH+/v5Sj4mMjMShQ4dQWlqK/Px8za7bhoSEYPDgwYqX2VXzGgwePBgZGRmqlvhtbyvT3NxcPPTQQ8jMzES3bt0U9e24JWrEiBGGLhms5Dn94osvUFBQ4PLKhmvXrlW0aJXaz1xbVqtV+jE+Pj5Yu3YtVq5ciUOHDqGhoUGTXHx8fDBw4EBcc801ih6v5rnx9vbG+vXrVS/x+9lnn+EPf/jDZT/Takvt5557DmVlZR5zW7fpVYizJjsC0NLSInx8fEzPW0mTHQFobGwUXl5equNef/31ora2Viq2EEK8+eabimMeO3ZMOp67UvoN+Ve/+pX46aefVMW22WxiypQpHcZJSEgQLS0tquKUl5eLm266SdFxKhkBUDqqMn36dJf6b25uFv369VMU4+uvv5Y6FmcjAK+99pr08+Ou1q9fr+g59fLyUjQS0tauXbs6HBWJiIgQP/zwg+o4L730kuq/u2Y3j5wDcObMmS6zlWdxcbEm34KLioowe/Zs6cfNnj0b9957r6KYnrTkqpJjCQ8Px86dO3Httdeqij137lysW7euw9/ZunXrL74RyXIsGWzULVFK3x9paWkuzb3ZtGmT4u2QtX7vetJnQemOp4sWLcLkyZNVxc7JyUF8fHyHIyoVFRUYM2aM6lVZly5diqeeekpVH+7A9CrEWZMdAdiwYYPpOSttsiMAaWlpmsbftGmTVHwhhDh16pQICwuTjvWXv/xFOpY7Onv2rPD29pY69oCAALFv3z7VsVesWCEVd+HChapj5uXlSb/esiMAra2tonfv3orfx67Ma4mOjlbc/8yZM6WOx9kIwI033ijVnzuLj4+Xfj5feeUV1XELCwul3jO33HKLqKqqUhWzqalJ3H///Zr+DTa4mZ6A0yZbADz55JOm56y0yRYAEyZM0DR+RESEKC0tlcpBCCE++eQT6VgxMTHScdyRbBHm6+srMjIyVMdNT08XFotF+nlfsWKF6tjZ2dmie/fuLseULQD27dun+n3c0NDQbv9fffWVqv779u0rNYnVWQEAQJNhabM1NjaKoKAgqedy4sSJiiYEX6qkpERcd9110q/jiBEjxIULF1TFrq+vFzExMZr+HTawmZ6A0yZTAFRXVyv6NuouTaYAKC8vl/6wudLGjh2r6AP52GOPScWxWCwe8Udv1KhRLh+zl5eX+Oijj1THzMrKEn5+fopeX29vb/H555+rzmHbtm0uz7WRLQBmzJih+n28evXqdvsfN26c6v6/+uorl4/HlQLAE+YBpKenS/+taW5uVhWzurpa3HrrrYpfx/j4eNXzYyoqKhTPjzG5mZ6A0yZTAMybN8/0fNU0mQIgKSlJtzzee+896Q9BVVWV9C2JiYmJ0nHcSXZ2ttTxvvXWW6pjHjhwQHXh5+fnJ7KyslTnkpqa6lI8mQKgsLBQ+Pr6qn4PDxgwQFit1l/0n5eXp8nE2TvvvNPlQtmVAiAoKEjR6Ju7aGpqEjfeeKPLz190dLQmt77efffdql/LadOmqT7+kydPil//+teqczG4mZ6A0+ZqAVBQUCACAwNNz1dNc7UAyMvLU/wN0JUWGBgojh49Kv0h2LVrl9SwtJeXl9i9e7d0HHdw4cIFqTUJ5s2bpzpmQUGBuOqqqzR5jUNCQsShQ4dU55ScnOw0lqsFgM1m0+TbuaNNnTr1sm93paWl4pZbbtGs/7S0NJeOy5UCAIB4+umnFb0G7kDmjqDIyEhx7tw5VfFaWlrEww8/rNlrqWQ9lLaOHDnS2UagTU/AaXOlAKitrRWDBw82PVe1zZUCoLy8XPTv31/3XCIjIxXdGjhr1iypOOHh4Z3ylsBnnnnG5WN88sknVV/nLC4uVnzbWnvtqquuEgUFBaqfixdffLHDOK4WAPPnz9f8fTxw4ECRlJQkJk+eLEJDQzXt29/fXxw4cMDpcblaAADazNEw2s6dO12+HNS3b19x4sQJVfFsNpvU58/Vtnz5ctXPxf79+0VAQIDmuenUTE/AaXNWAFRXV4vf/e53puepRXNWAJSXl4s777zTsHzuvvtuUVdXJ/UBaGxslP6WFRkZqfp+eKPYbDbxxz/+0eVjCw0NFWVlZapiFhUViYEDB+ryGvfv3191EXDu3DkRHh7ebgxXCoCVK1dqMjRvdLv66qvFf/7znw6PTaYA8PHxEZ9++qmq18NI+/btk/rWq+Ty4qVaWlrE9OnTdXktvb29RWpqqurnZPLkyaa/L11spifgtHVUABQUFIhBgwaZnqNWraMCIDc3V9FMV7VtyJAhorCwUOoDkJeXJ71Eae/evTW5NU5PdXV1ioYdBwwYoHjCY05OjujTp4+ur3FERITYv3+/ovx+/PFHERkZ2WH/HRUATU1Nmkz6M7MFBQWJzZs3t3uMMgUAYL809tprr6keNdLbunXrpD/nvr6+ik+ydXV1IiEhQffXc/78+aK1tVU6v+bmZtXLghvcTE/AabtSAVBXVydSUlJEcHCw6flp2a5UAJSVlYmkpCRdr/k7awEBAeL111+XuiSgpAq2WCwiMTFRFBUVSX/49NTa2io2btyoqgALCAgQc+fOFTU1NS7FrKysFC+++KJhq1paLBbx1FNPuTxaUV9fL1JSUkRISIjTvtsrALKysjS9Jm92i42NFbm5ub84TtkCwNEGDx4sNm7c6NLrYaQjR46IxMRE1c+Vs5ETB5vNJjZu3Kh63xOZdtttt0ntSZCVlSWioqJMfw9KNtMTcNrWr18vmpqaxMmTJ3/ecEfJBh6doWVnZwur1SqKiorExx9/LCZMmOBWExvDwsLEjBkzREZGxi9OFI2NjeLgwYPijTfeUP1HvXv37mL8+PHi/fffF4WFharv1ZVls9nE6dOnRVZWlkhKStL02ntERISYNm2a2LFjhygvL/85ZktLiygpKRGbN28Wjz/+uGnFbXBwsHj88cfF5s2bRUlJyWWT6CoqKsTOnTvFjBkzpBZdcRQA5eXlYs+ePWLu3Lni5ptvNv39rEfz9vYWsbGxYvny5eK7774T9fX1igsAR4uKihLz588X//rXv1RPnlOitrZW5ObmisWLF4t77rlHs0s13t7eIi4uTqSmpoqioiLR1NT0c8yqqipx4MABMW/ePDFgwABTXksvLy8RExMjli5dKvLz8y9bW6KhoUHk5eWJlJQUcccdd5j+vlN0fBf/4dZCQkJw/vx52Gw2s1PRXY8ePVBTU6PZJjd6CwwMRFhYGBoaGlBTU4PW1lbdYkVERCA4OFi3/h2am5tRVlZm2Bax3bp1Q1hYGM6ePeuWS1j7+PigV69eqKqqUrRpDQD4+/tDCKH5JjqdRVhYGKqqqjTrz9/fH3369FG1dbSrzp49i9raWt3jAPbtuHv37o26ujrU19cbElNWz549IYTQ9PU0S6coAIiIiEhbHrkZEBEREXWMBQAREVEXxAKAiIioC2IBQERE1AWxACAiIuqCWAAQERF1QSwAiIiIuiAWAERERF0QCwAiIqIuiAUAERFRF8QCgIiIqAtiAUBERNQFsQAgIiLqglgAEBERdUEWcDtgIiKirkZYALSYnQUREREZqtkCwGp2Fkw/QL4AAAXKSURBVERERGQoqwVAk9lZEBERkaGsFgB1ZmdBREREhqqzADhndhZERERkqLMsAIiIiLqecxYAFWZnQURERIY6awFw0uwsiIiIyFAnLAB+MjsLIiIiMtQJC4DjZmdBREREhjpuAfBfs7MgIiIiQx31AuAFoBJAD5OTISIiIv1VAgh3bAZ0xORkiIiIyBh5wP+2Az5kYiJERERknMPA/wqAf5qYCBERERlnL2C//g8A1wAoMS8XIiIiMsg1AEodIwCnAZwwLxciIiIywDEApcD/LgEAwJfm5EJEREQG2eH4h+VKPyQiIiKP9PO53uuSHwYDOAvAz/B0iIiISG+NAHoBqAcuHwGoA7DTjIyIiIhId5m4ePIHLi8AAGCjsbkQERGRQS47x3u1+Y8hAMoAdDcsHSIiItJbA4DeAM47ftB2BKAWwBYjMyIiIiLdbcIlJ3/glwUAALxvTC5ERERkkA/a/qDtJQDHz34AMED3dIiIiEhvBQBuhn3zv59daQRAAFhpREZERESkuxVoc/IHrjwCAACBAH4CEK5nRkRERKSrSgD90Ob6P3DlEQDAfp/gWj0zIiIiIt29hyuc/IH2RwAA+2pBRbCvEEhERESdy3kANwAov9J/bG8EALAvC/yuHhkRERGR7pajnZM/0PEIAGCfA1AE+wJBRERE1DlUA7geQFV7v+DtpIMLAGwARmmYFBEREenrVQC7O/oFZyMAgH13wO/AdQGIiIg6gx8BDAZg7eiXOpoD4NAEYI4WGREREZHuXoKTkz/gWgEAAFvBPQKIiIjc3ecAtrvyi65cAnC4GsD3AMKUZERERES6qoF96L/ElV92NgnwUucBVACIV5AUERER6WsGgD2u/rLMCIDDBgCPKHgcERER6eNvAH4v8wAlBUA4gFwAfRU8loiIiLR1CkAUOrjn/0pcnQR4qXMAEmG/O4CIiIjM0wzgCUie/AG5OQCXKgZQByBO4eOJiIhIvRcBbFbyQKUFAAAcAHAjgCEq+iAiIiJl0mBf8U8RJXMALuUHIBPASJX9EBERkeu+ATAaLiz40x61BQAA9ATwTwA3adAXERERdewogGFQcN3/UkomAbZVCftmQSc06IuIiIjadwrAA1B58ge0KQAAe0KjAJRq1B8RERFdrhz2Yf8TWnSmVQEAAMdgLwLOaNgnERER2b9gjwTwX6061GIOQFv9Aey6+L9ERESkzkkAsQAKtexUyxEAh+MA7gPwgw59ExERdSVHAdwNjU/+gD4FAAD8BCAGQLZO/RMREXm6fQDugX0EQHN6FQCAfYZiHIBPdIxBRETkidJgv+Z/Vq8AalYCdEUrgC2wT16434B4REREnVkLgP8D8Ars51Dd6DEJsD3DAXwG7iJIRER0JacAPApgvxHB9LwE0NZeAIMBfGpgTCIios5gM4BbYdDJHzC2AACAGti3LXzm4r+JiIi6smoAkwFMgH1lXcMYeQmgrT4A3gGQaGIOREREZtkOYAaAYjOCGz0CcKkzAB4BkADgRxPzICIiMlIhgAcvNlNO/oB7zMr/AUAqgDoAQwF0MzcdIiIiXVQDeA3A07Av8GMqdygAAPutDvsArAHQCOB2sBAgIiLPUA/gbdhHvb+Czrf3ucrMOQAduQrAywCmAQgzORciIiIlKgG8B2AZdFzQRyl3LQAcggBMAfACgAEm50JEROSKAgArAayD/du/W3L3AsDBC8C9AJ4F8DAAf3PTISIiukwD7PfyrwWwB4AwNx3nOksBcCl/2LdFTATwewAB5qZDRERdlBVAFoDPYV/2vs7cdOR0xgLgUoGwb5YQB/teAzeYmw4REXm4QgA7AewAsBtuPMTvTGcvANq6BsBdAIYBuA3ALQB6mpoRERF1VpUA8gAchv1OtX/CvrmdR/C0AuBK+gK4GUB/ANcB6AcgAkA4gF4AQi/+Xgjc57ZIIiLSRyuA2ov/roF9dr6j/QTg+MX2XwCnzUjQKP8PXT7EbgNoxmkAAAAASUVORK5CYII=;" vertex="1" parent="1">
          <mxGeometry x="269" y="240" width="42" height="42" as="geometry" />
        </mxCell>
      </root>
    </mxGraphModel>
  </diagram>
</mxfile>
